{
  "accessors": [
    {
      "bufferView": 2,
      "componentType": 5126,
      "count": 188,
      "max": [
        42.61422348022461,
        180.32461547851563,
        12.829076766967773
      ],
      "min": [
        -38.61052703857422,
        0.10715723037719727,
        -12.532127380371094
      ],
      "type": "VEC3"
    },
    {
      "bufferView": 2,
      "byteOffset": 2256,
      "componentType": 5126,
      "count": 188,
      "type": "VEC3"
    },
    {
      "bufferView": 3,
      "componentType": 5126,
      "count": 188,
      "type": "VEC4"
    },
    {
      "bufferView": 1,
      "componentType": 5126,
      "count": 188,
      "type": "VEC2"
    },
    {
      "bufferView": 1,
      "byteOffset": 1504,
      "componentType": 5126,
      "count": 188,
      "type": "VEC2"
    },
    {
      "bufferView": 1,
      "byteOffset": 3008,
      "componentType": 5126,
      "count": 188,
      "type": "VEC2"
    },
    {
      "bufferView": 0,
      "componentType": 5125,
      "count": 348,
      "type": "SCALAR"
    },
    {
      "bufferView": 2,
      "byteOffset": 4512,
      "componentType": 5126,
      "count": 46,
      "max": [
        3.4366846084594727,
        2.8640270233154297,
        78.15111541748047
      ],
      "min": [
        0.2499038279056549,
        -2.8641104698181152,
        -3.073629856109619
      ],
      "type": "VEC3"
    },
    {
      "bufferView": 2,
      "byteOffset": 5064,
      "componentType": 5126,
      "count": 46,
      "type": "VEC3"
    },
    {
      "bufferView": 3,
      "byteOffset": 3008,
      "componentType": 5126,
      "count": 46,
      "type": "VEC4"
    },
    {
      "bufferView": 1,
      "byteOffset": 4512,
      "componentType": 5126,
      "count": 46,
      "type": "VEC2"
    },
    {
      "bufferView": 1,
      "byteOffset": 4880,
      "componentType": 5126,
      "count": 46,
      "type": "VEC2"
    },
    {
      "bufferView": 1,
      "byteOffset": 5248,
      "componentType": 5126,
      "count": 46,
      "type": "VEC2"
    },
    {
      "bufferView": 0,
      "byteOffset": 1392,
      "componentType": 5125,
      "count": 114,
      "type": "SCALAR"
    },
    {
      "bufferView": 2,
      "byteOffset": 5616,
      "componentType": 5126,
      "count": 720,
      "max": [
        7.40126371383667,
        -0.946670651435852,
        36.81294631958008
      ],
      "min": [
        -7.40126371383667,
        -122.83397674560547,
        -36.81294631958008
      ],
      "type": "VEC3"
    },
    {
      "bufferView": 2,
      "byteOffset": 14256,
      "componentType": 5126,
      "count": 720,
      "type": "VEC3"
    },
    {
      "bufferView": 3,
      "byteOffset": 3744,
      "componentType": 5126,
      "count": 720,
      "type": "VEC4"
    },
    {
      "bufferView": 1,
      "byteOffset": 5616,
      "componentType": 5126,
      "count": 720,
      "type": "VEC2"
    },
    {
      "bufferView": 1,
      "byteOffset": 11376,
      "componentType": 5126,
      "count": 720,
      "type": "VEC2"
    },
    {
      "bufferView": 1,
      "byteOffset": 17136,
      "componentType": 5126,
      "count": 720,
      "type": "VEC2"
    },
    {
      "bufferView": 0,
      "byteOffset": 1848,
      "componentType": 5125,
      "count": 1200,
      "type": "SCALAR"
    },
    {
      "bufferView": 2,
      "byteOffset": 22896,
      "componentType": 5126,
      "count": 70,
      "max": [
        8.960565567016602,
        0.9518528580665588,
        36.95549774169922
      ],
      "min": [
        -8.769889831542969,
        -122.02752685546875,
        -36.95549774169922
      ],
      "type": "VEC3"
    },
    {
      "bufferView": 2,
      "byteOffset": 23736,
      "componentType": 5126,
      "count": 70,
      "type": "VEC3"
    },
    {
      "bufferView": 3,
      "byteOffset": 15264,
      "componentType": 5126,
      "count": 70,
      "type": "VEC4"
    },
    {
      "bufferView": 1,
      "byteOffset": 22896,
      "componentType": 5126,
      "count": 70,
      "type": "VEC2"
    },
    {
      "bufferView": 1,
      "byteOffset": 23456,
      "componentType": 5126,
      "count": 70,
      "type": "VEC2"
    },
    {
      "bufferView": 1,
      "byteOffset": 24016,
      "componentType": 5126,
      "count": 70,
      "type": "VEC2"
    },
    {
      "bufferView": 0,
      "byteOffset": 6648,
      "componentType": 5125,
      "count": 120,
      "type": "SCALAR"
    },
    {
      "bufferView": 2,
      "byteOffset": 24576,
      "componentType": 5126,
      "count": 46,
      "max": [
        3.4366846084594727,
        2.8640270233154297,
        78.15111541748047
      ],
      "min": [
        0.2499038279056549,
        -2.8641104698181152,
        -3.073629856109619
      ],
      "type": "VEC3"
    },
    {
      "bufferView": 2,
      "byteOffset": 25128,
      "componentType": 5126,
      "count": 46,
      "type": "VEC3"
    },
    {
      "bufferView": 3,
      "byteOffset": 16384,
      "componentType": 5126,
      "count": 46,
      "type": "VEC4"
    },
    {
      "bufferView": 1,
      "byteOffset": 24576,
      "componentType": 5126,
      "count": 46,
      "type": "VEC2"
    },
    {
      "bufferView": 1,
      "byteOffset": 24944,
      "componentType": 5126,
      "count": 46,
      "type": "VEC2"
    },
    {
      "bufferView": 1,
      "byteOffset": 25312,
      "componentType": 5126,
      "count": 46,
      "type": "VEC2"
    },
    {
      "bufferView": 0,
      "byteOffset": 7128,
      "componentType": 5125,
      "count": 114,
      "type": "SCALAR"
    }
  ],
  "asset": {
    "generator": "fab-model-conversion",
    "version": "2.0"
  },
  "bufferViews": [
    {
      "buffer": 0,
      "byteLength": 7584,
      "target": 34963
    },
    {
      "buffer": 0,
      "byteLength": 25680,
      "byteOffset": 7584,
      "byteStride": 8,
      "target": 34962
    },
    {
      "buffer": 0,
      "byteLength": 25680,
      "byteOffset": 33264,
      "byteStride": 12,
      "target": 34962
    },
    {
      "buffer": 0,
      "byteLength": 17120,
      "byteOffset": 58944,
      "byteStride": 16,
      "target": 34962
    }
  ],
  "buffers": [
    {
      "byteLength": 76064,
      "uri": "scene.bin"
    }
  ],
  "images": [
    {
      "uri": "textures/BookshelfMaterial_baseColor.png"
    },
    {
      "uri": "textures/BookshelfMaterial_metallicRoughness.png"
    },
    {
      "uri": "textures/BookshelfMaterial_normal.png"
    }
  ],
  "materials": [
    {
      "doubleSided": true,
      "name": "BookshelfMaterial",
      "normalTexture": {
        "index": 2
      },
      "pbrMetallicRoughness": {
        "baseColorTexture": {
          "index": 0
        },
        "metallicRoughnessTexture": {
          "index": 1
        }
      }
    }
  ],
  "meshes": [
    {
      "name": "body_low_BookshelfMaterial_0",
      "primitives": [
        {
          "attributes": {
            "NORMAL": 1,
            "POSITION": 0,
            "TANGENT": 2,
            "TEXCOORD_0": 3,
            "TEXCOORD_1": 4,
            "TEXCOORD_2": 5
          },
          "indices": 6,
          "material": 0,
          "mode": 4
        }
      ]
    },
    {
      "name": "trim_decor_low_BookshelfMaterial_0",
      "primitives": [
        {
          "attributes": {
            "NORMAL": 8,
            "POSITION": 7,
            "TANGENT": 9,
            "TEXCOORD_0": 10,
            "TEXCOORD_1": 11,
            "TEXCOORD_2": 12
          },
          "indices": 13,
          "material": 0,
          "mode": 4
        }
      ]
    },
    {
      "name": "holder_low_BookshelfMaterial_0",
      "primitives": [
        {
          "attributes": {
            "NORMAL": 15,
            "POSITION": 14,
            "TANGENT": 16,
            "TEXCOORD_0": 17,
            "TEXCOORD_1": 18,
            "TEXCOORD_2": 19
          },
          "indices": 20,
          "material": 0,
          "mode": 4
        }
      ]
    },
    {
      "name": "shelf_low_BookshelfMaterial_0",
      "primitives": [
        {
          "attributes": {
            "NORMAL": 22,
            "POSITION": 21,
            "TANGENT": 23,
            "TEXCOORD_0": 24,
            "TEXCOORD_1": 25,
            "TEXCOORD_2": 26
          },
          "indices": 27,
          "material": 0,
          "mode": 4
        }
      ]
    },
    {
      "name": "trim_decor_copy_low_BookshelfMaterial_0",
      "primitives": [
        {
          "attributes": {
            "NORMAL": 29,
            "POSITION": 28,
            "TANGENT": 30,
            "TEXCOORD_0": 31,
            "TEXCOORD_1": 32,
            "TEXCOORD_2": 33
          },
          "indices": 34,
          "material": 0,
          "mode": 4
        }
      ]
    }
  ],
  "nodes": [
    {
      "children": [
        1
      ],
      "matrix": [
        1.0,
        0.0,
        0.0,
        0.0,
        0.0,
        2.220446049250313e-16,
        -1.0,
        0.0,
        0.0,
        1.0,
        2.220446049250313e-16,
        0.0,
        0.0,
        0.0,
        0.0,
        1.0
      ],
      "name": "Sketchfab_model"
    },
    {
      "children": [
        2
      ],
      "matrix": [
        0.009999999776482582,
        0.0,
        0.0,
        0.0,
        0.0,
        0.0,
        0.009999999776482582,
        0.0,
        0.0,
        -0.009999999776482582,
        0.0,
        0.0,
        0.0,
        0.0,
        0.0,
        1.0
      ],
      "name": "bookshelf_low.fbx"
    },
    {
      "children": [
        3
      ],
      "name": "RootNode"
    },
    {
      "children": [
        4,
        5,
        7,
        9,
        11
      ],
      "name": "body_low"
    },
    {
      "mesh": 0,
      "name": "body_low_BookshelfMaterial_0"
    },
    {
      "children": [
        6
      ],
      "matrix": [
        7.549789959870878e-08,
        0.0,
        -0.9999999999999971,
        0.0,
        0.0,
        1.0,
        0.0,
        0.0,
        0.9999999999999971,
        0.0,
        7.549789959870878e-08,
        0.0,
        -35.536895751953125,
        177.46058654785156,
        16.265764236450195,
        1.0
      ],
      "name": "trim_decor_low"
    },
    {
      "mesh": 1,
      "name": "trim_decor_low_BookshelfMaterial_0"
    },
    {
      "children": [
        8
      ],
      "matrix": [
        7.549789959870878e-08,
        0.0,
        -0.9999999999999971,
        0.0,
        0.0,
        1.0,
        0.0,
        0.0,
        0.9999999999999971,
        0.0,
        7.549789959870878e-08,
        0.0,
        2.0018577575683594,
        154.4569091796875,
        0.15925467014312744,
        1.0
      ],
      "name": "holder_low"
    },
    {
      "mesh": 2,
      "name": "holder_low_BookshelfMaterial_0"
    },
    {
      "children": [
        10
      ],
      "matrix": [
        7.549789959870878e-08,
        0.0,
        -0.9999999999999971,
        0.0,
        0.0,
        1.0,
        0.0,
        0.0,
        0.9999999999999971,
        0.0,
        7.549789959870878e-08,
        0.0,
        2.0018577575683594,
        154.4569091796875,
        0.15925467014312744,
        1.0
      ],
      "name": "shelf_low"
    },
    {
      "mesh": 3,
      "name": "shelf_low_BookshelfMaterial_0"
    },
    {
      "children": [
        12
      ],
      "matrix": [
        6.715443472415927e-07,
        -5.293955920339377e-23,
        -0.9999999999997745,
        0.0,
        3.8941437731112403e-07,
        -0.9999999999999245,
        2.615090238611811e-13,
        0.0,
        -0.9999999999996988,
        -3.8941437731121186e-07,
        -6.715443474636373e-07,
        0.0,
        39.550846099853516,
        2.971200942993164,
        16.2657413482666,
        1.0
      ],
      "name": "trim_decor_copy_low"
    },
    {
      "mesh": 4,
      "name": "trim_decor_copy_low_BookshelfMaterial_0"
    }
  ],
  "samplers": [
    {
      "magFilter": 9729,
      "minFilter": 9987,
      "wrapS": 10497,
      "wrapT": 10497
    }
  ],
  "scene": 0,
  "scenes": [
    {
      "name": "Sketchfab_Scene",
      "nodes": [
        0
      ]
    }
  ],
  "textures": [
    {
      "sampler": 0,
      "source": 0
    },
    {
      "sampler": 0,
      "source": 1
    },
    {
      "sampler": 0,
      "source": 2
    }
  ]
}
